<?xml version="1.0" encoding="iso-8859-1"?>
<!-- Generator: Adobe Illustrator 19.0.0, SVG Export Plug-In . SVG Version: 6.00 Build 0)  -->
<svg xmlns="http://www.w3.org/2000/svg" xmlns:xlink="http://www.w3.org/1999/xlink" version="1.1" id="Layer_1" x="0px" y="0px" viewBox="0 0 512.001 512.001" style="enable-background:new 0 0 512.001 512.001;" xml:space="preserve">
<g>
	<g>
		<path d="M472.878,66.339h-22.113c-18.711,0-32.319,10.206-35.721,25.515c-1.701,1.701-1.701,5.103-1.701,6.804V272.16H166.698    c1.701-3.402,1.701-6.804,1.701-11.907c0-8.505-3.402-18.711-10.206-25.515l-15.309-13.608c-15.309-15.309-39.123-15.309-52.73,0    l-78.247,78.247C3.402,306.18,0,316.386,0,326.592s3.402,20.412,11.907,27.216l81.648,81.648    c6.804,5.103,15.309,10.206,25.515,10.206s18.711-3.402,27.216-10.206l15.309-13.608c6.804-6.804,11.907-17.01,11.907-27.216    c0-8.505-3.402-15.309-6.804-22.112h297.675c27.216,0,47.628-18.711,47.628-44.226V110.566    C510.299,90.153,494.991,66.339,472.878,66.339z M462.672,336.798H127.575c-10.206,0-17.01,6.804-17.01,17.01v3.402    c0,5.103,1.701,8.505,5.103,11.907l20.411,22.112l1.701,1.701c0,0,0,1.701-1.701,3.402l-15.309,13.608    c-1.701,1.701-3.402,1.701-5.103,0L34.02,328.294v-1.701c0,0,0-1.701,1.701-1.701l78.246-78.246c0,0,1.701-1.701,3.402-1.701    c1.701,0,1.701,0,3.402,1.701l15.309,13.608l1.701,1.701l-18.711,15.309c-5.103,5.103-6.804,11.907-5.103,18.711    c1.701,6.804,8.505,11.907,15.309,11.907h302.778c10.206,0,17.01-6.804,17.01-17.01v-185.41c0-1.701,0-1.701,0-3.402    c0,0,1.701-1.701,3.402-1.701h20.412c0,1.701,3.402,5.103,3.402,10.206v216.026h0.001    C476.279,335.098,466.073,336.798,462.672,336.798z"/>
	</g>
</g>
<g>
</g>
<g>
</g>
<g>
</g>
<g>
</g>
<g>
</g>
<g>
</g>
<g>
</g>
<g>
</g>
<g>
</g>
<g>
</g>
<g>
</g>
<g>
</g>
<g>
</g>
<g>
</g>
<g>
</g>
</svg>
