<?xml version="1.0" encoding="iso-8859-1"?>
<!-- Generator: Adobe Illustrator 19.0.0, SVG Export Plug-In . SVG Version: 6.00 Build 0)  -->
<svg xmlns="http://www.w3.org/2000/svg" xmlns:xlink="http://www.w3.org/1999/xlink" version="1.1" id="Layer_1" x="0px" y="0px" viewBox="0 0 512 512" style="enable-background:new 0 0 512 512;" xml:space="preserve">
<g>
	<g>
		<path d="M505.173,243.277L233.813,35.063c-5.12-3.413-11.946-5.12-18.773-1.706c-5.12,3.413-10.24,8.534-10.24,15.36v63.146    H17.067C6.827,111.864,0,118.69,0,128.93v254.294c0,10.24,6.827,17.067,17.067,17.067h189.44v63.146    c0,6.827,3.413,11.947,10.24,15.36c1.707,1.706,5.12,1.706,6.827,1.706c3.413,0,6.827-1.706,10.24-3.413l271.36-208.213    c3.413-3.413,6.827-8.534,6.827-13.653C512,250.103,510.293,246.69,505.173,243.277z M240.64,429.304v-46.08    c0-10.24-6.827-17.067-17.067-17.067H34.133v-220.16h189.44c10.24,0,17.067-6.827,17.067-17.067V84.557l226.986,172.374    L240.64,429.304z"/>
	</g>
</g>
<g>
</g>
<g>
</g>
<g>
</g>
<g>
</g>
<g>
</g>
<g>
</g>
<g>
</g>
<g>
</g>
<g>
</g>
<g>
</g>
<g>
</g>
<g>
</g>
<g>
</g>
<g>
</g>
<g>
</g>
</svg>
