<?xml version="1.0" standalone="no"?>
<!DOCTYPE svg PUBLIC "-//W3C//DTD SVG 20010904//EN"
 "http://www.w3.org/TR/2001/REC-SVG-20010904/DTD/svg10.dtd">
<svg version="1.0" xmlns="http://www.w3.org/2000/svg"
 width="1600.000000pt" height="1600.000000pt" viewBox="0 0 1600.000000 1600.000000"
 preserveAspectRatio="xMidYMid meet">

<g transform="translate(0.000000,1600.000000) scale(0.100000,-0.100000)"
fill="#000000" stroke="none">
<path d="M3495 13989 c-787 -82 -1403 -704 -1484 -1498 -15 -145 -15 -8837 0
-8982 81 -800 698 -1417 1498 -1498 145 -15 8837 -15 8982 0 800 81 1417 698
1498 1498 15 145 15 8837 0 8982 -81 800 -698 1417 -1498 1498 -126 13 -8873
13 -8996 0z m4980 -1999 c646 -47 1127 -205 1620 -533 416 -276 655 -575 794
-992 83 -250 117 -508 108 -819 -11 -358 -88 -660 -237 -920 -134 -235 -370
-472 -594 -600 l-77 -44 58 -17 c83 -24 265 -100 342 -142 288 -159 529 -411
665 -696 84 -178 141 -379 166 -587 14 -118 14 -461 0 -600 -117 -1167 -843
-1832 -2185 -2000 -305 -38 -435 -40 -2307 -40 l-1828 0 0 4000 0 4000 1668 0
c1031 0 1720 -4 1807 -10z"/>
<path d="M7000 9750 l0 -911 798 3 797 3 85 29 c398 133 650 472 650 876 0
404 -252 743 -650 876 l-85 29 -797 3 -798 3 0 -911z"/>
<path d="M7000 6335 l0 -996 928 3 927 3 75 23 c174 54 319 140 441 261 125
125 216 283 260 448 27 100 37 313 19 420 -26 165 -99 328 -207 462 -132 166
-306 279 -528 343 l-80 23 -917 3 -918 3 0 -996z"/>
</g>
</svg>
