<?xml version="1.0" standalone="no"?>
<!DOCTYPE svg PUBLIC "-//W3C//DTD SVG 20010904//EN"
 "http://www.w3.org/TR/2001/REC-SVG-20010904/DTD/svg10.dtd">
<svg version="1.0" xmlns="http://www.w3.org/2000/svg"
 width="2400.000000pt" height="2400.000000pt" viewBox="0 0 2400.000000 2400.000000"
 preserveAspectRatio="xMidYMid meet">

<g transform="translate(0.000000,2400.000000) scale(0.100000,-0.100000)"
fill="#000000" stroke="none">
<path d="M0 12000 l0 -12000 12000 0 12000 0 0 12000 0 12000 -12000 0 -12000
0 0 -12000z m8166 4809 c409 -57 784 -290 1083 -674 211 -271 247 -353 258
-585 9 -195 -37 -342 -139 -443 -72 -72 -133 -100 -230 -105 -66 -4 -84 -1
-132 21 -111 51 -214 178 -381 467 -109 188 -127 214 -224 310 -129 127 -253
180 -422 180 -210 -1 -413 -88 -670 -287 -493 -384 -1013 -1087 -1463 -1978
-397 -785 -657 -1570 -727 -2195 -19 -164 -16 -471 5 -594 78 -462 318 -596
714 -397 411 207 986 744 1446 1351 269 355 270 357 502 1054 120 360 212 621
236 669 81 156 222 256 377 265 186 11 323 -86 367 -258 14 -53 16 -93 11
-220 -13 -318 -88 -624 -274 -1110 -41 -107 -95 -251 -119 -320 -24 -69 -48
-134 -54 -145 -60 -128 -399 -1233 -707 -2305 -90 -316 -177 -605 -192 -642
-88 -209 -229 -380 -357 -434 -51 -21 -158 -21 -210 1 -56 23 -111 81 -134
141 -46 124 -52 392 -11 569 28 123 108 412 192 695 62 207 256 825 274 873 4
9 -82 -72 -191 -181 -416 -414 -765 -683 -1119 -864 -280 -142 -450 -189 -680
-189 -248 0 -420 56 -607 197 -149 111 -265 257 -358 449 -187 389 -221 834
-114 1525 119 771 397 1602 804 2405 658 1296 1524 2250 2375 2615 136 59 314
113 425 129 41 6 86 13 100 15 57 8 274 5 346 -5z m7216 -612 c76 -34 150
-105 179 -170 17 -39 24 -76 27 -152 6 -153 7 -150 -241 -715 -231 -526 -475
-1112 -929 -2230 -410 -1007 -736 -1830 -783 -1975 -67 -203 -89 -350 -65
-434 12 -44 24 -51 83 -51 236 -1 807 409 1523 1093 l222 212 57 185 c106 344
236 683 327 850 84 154 187 273 266 307 48 21 160 21 233 0 84 -25 132 -65
171 -144 31 -64 33 -74 32 -168 -1 -85 -18 -217 -41 -315 -4 -18 37 17 148
125 412 402 816 642 1149 685 221 29 469 -29 644 -149 63 -44 157 -149 193
-217 102 -191 83 -445 -55 -749 -170 -374 -385 -671 -1035 -1430 -104 -120
-200 -238 -214 -262 -40 -69 -17 -119 61 -134 85 -16 198 36 417 190 215 153
827 665 1364 1142 406 361 414 367 489 404 176 87 301 17 337 -190 30 -175
-43 -404 -170 -534 -31 -31 -157 -147 -281 -257 -124 -110 -338 -304 -475
-430 -621 -568 -901 -782 -1250 -955 -221 -110 -398 -160 -631 -179 -299 -24
-534 39 -674 180 -99 100 -140 207 -140 370 0 118 24 210 86 337 93 188 321
509 605 848 580 695 726 907 717 1043 -2 36 -9 49 -31 66 -24 18 -42 21 -120
20 -118 -1 -195 -22 -332 -89 -256 -127 -515 -360 -799 -716 -219 -275 -429
-606 -586 -924 -156 -316 -569 -1248 -672 -1515 -115 -300 -450 -1197 -499
-1339 -116 -333 -243 -512 -428 -604 l-84 -42 -121 0 c-142 1 -205 20 -279 85
-65 58 -89 121 -95 251 -7 174 21 291 150 619 91 232 133 326 476 1060 134
289 294 635 354 770 61 135 123 274 139 309 16 35 28 65 27 67 -2 1 -41 -32
-88 -73 -266 -236 -551 -437 -788 -556 -231 -115 -422 -167 -619 -167 -195 0
-334 50 -443 160 -75 74 -115 144 -145 248 l-21 72 -46 -34 c-159 -122 -462
-294 -640 -365 -238 -94 -461 -106 -608 -31 -167 85 -244 237 -257 510 -5 111
6 279 24 374 5 25 -5 16 -52 -49 -174 -242 -421 -480 -640 -620 -77 -49 -250
-134 -340 -169 -320 -120 -735 -127 -944 -16 -119 64 -200 149 -261 275 -60
125 -74 196 -74 370 0 169 14 258 74 490 136 525 388 1193 727 1920 177 381
218 446 325 527 173 130 413 125 562 -12 98 -90 123 -213 75 -362 -12 -40 -81
-185 -151 -323 -261 -508 -396 -786 -465 -961 -188 -473 -261 -854 -189 -991
30 -59 50 -68 145 -67 218 2 430 110 679 348 265 254 511 614 764 1121 117
233 179 381 263 624 84 245 137 373 193 466 117 197 219 264 380 253 83 -6
152 -40 209 -101 83 -90 119 -198 111 -338 -7 -131 -72 -305 -371 -995 -241
-554 -364 -959 -383 -1255 -11 -171 21 -215 156 -213 144 2 369 100 591 257
193 136 185 127 218 247 75 266 88 299 1400 3610 298 751 556 1394 574 1430
60 122 188 227 324 266 77 22 215 13 285 -19z"/>
</g>
</svg>
