<?xml version="1.0" encoding="UTF-8"?><svg xmlns="http://www.w3.org/2000/svg" xmlns:xlink="http://www.w3.org/1999/xlink" viewBox="0 0 50 50" version="1.1"><path d="M30.031 3a1.012 1.012 0 0 0-.476.105c-.63.313-1.032.774-1.395 1.176-.36.403-.629.762-.629.762A8.998 8.998 0 0 0 26 9.993a9.955 9.955 0 0 0 .77 3.886c1.261 3.027 3.796 5.367 6.777 6.484h.004c.136.055.258.098.355.133a.22.22 0 0 1 .047.016c.02.004.063.02.137.039.113.039.305.117.586.172.816.164 1.578.25 2.293.273 3.164.098 5.355-1.121 6.722-2.453a9.867 9.867 0 0 0 1.516-1.922c.348-.562.613-1.07.617-1.074h.004c.3-.457.18-1.07-.27-1.379a1.005 1.005 0 0 0-1.386.254c-.774 1.137-1.734 1.789-2.961 2.105-1.227.317-2.734.27-4.465-.16a7.82 7.82 0 0 1-.785-.25s-.004 0-.008-.004a9.983 9.983 0 0 1-.957-.402l-.004-.004-.008-.004a9.84 9.84 0 0 1-1.68-1.05c-1.437-1.118-2.554-2.946-3.03-4.856-.477-1.91-.313-3.856.574-5.266.191-.304.203-.687.035-1.004A.997.997 0 0 0 30.03 3zm-9.035 2a.993.993 0 0 0-.629.227c-1.601 1.304-3.125 3.332-3.125 3.332a.161.161 0 0 0-.027.043c-2.961 4.304-2.777 9.964-.524 14.43.372.738.793 1.456 1.266 2.14l.004.004c.371.547.82 1.262 1.469 1.86.21.241.43.468.648.683.05.054.106.11.156.16a19.246 19.246 0 0 0 .656.617l.005.004.027.027.015.008a13.02 13.02 0 0 0 .762.64c.012.012.02.02.031.028 0 0 .055.047.168.129.25.195.504.383.754.563a.682.682 0 0 0 .098.062c.023.016.04.027.059.043h.003c.09.063.18.121.254.172.024.015.079.055.168.113.196.13.387.246.586.367l.063.035.066.032c.008.008.008.004.02.011.156.094.316.188.484.274.059.035.129.07.149.082.011.008.023.012.035.02.101.05.21.109.324.171.098.051.125.055.117.055.25.121.488.23.711.336.016.004.031.012.05.02.048.019.087.035.138.058.199.082.406.176.625.258l.039.016a18.107 18.107 0 0 1 .234.09c.188.066.379.128.566.19.098.036.184.063.258.09h.004c.207.067.516.196.934.266 0 0 0-.004.004 0 1.578.262 3.035.367 4.379.34 5.496-.121 9.058-2.543 11.148-4.926 2.086-2.383 2.789-4.789 2.789-4.789a.995.995 0 0 0-.531-1.183 1.002 1.002 0 0 0-1.254.34c-2.656 3.882-7.82 5.878-13.469 4.39a8.77 8.77 0 0 1-.73-.215c-.016-.004-.035-.011-.055-.015a1.95 1.95 0 0 1-.164-.051c-.008-.004-.016-.008-.02-.012-.183-.058-.355-.113-.511-.176h-.004c-.09-.035-.168-.062-.235-.09a15.47 15.47 0 0 1-.578-.238c-.086-.035-.125-.054-.07-.027-.023-.012-.047-.02-.07-.031a17.01 17.01 0 0 1-.672-.317l-.016-.004c0-.004-.004-.004-.008-.007-.113-.06-.222-.114-.336-.176-.004 0-.007-.004-.015-.004-.07-.04-.137-.074-.196-.106v.004c-.128-.066-.261-.148-.418-.242l-.027-.012c-.047-.027-.062-.035-.07-.043h-.004l-.008-.003c-.191-.118-.371-.227-.512-.325-.02-.011-.043-.023-.062-.035a.76.76 0 0 0-.129-.09 7.974 7.974 0 0 1-.332-.218h-.004c-.004-.004-.008-.008-.016-.008-.218-.16-.445-.332-.675-.508l-.02-.02c-.055-.043-.101-.078-.133-.105a.104.104 0 0 1-.023-.02c-2.492-1.988-4.453-4.71-5.375-7.754v-.003c-.926-2.997.027-6.676 1.648-9.477.18-.309.18-.691 0-1.004A1.003 1.003 0 0 0 20.996 5zM10.004 8a.997.997 0 0 0-.672.258c-.055.047-.082.097-.137.148-1.941 1.797-3.324 3.985-3.351 4.031-4.024 5.848-3.489 14.82-.485 20.88v.011c.079.164.157.309.22.422.03.07.066.137.1.203.075.168.13.238.137.25l.13.246c.003.008.011.02.015.028.09.144.176.304.273.464 0 .004.004.008.008.012.043.07.098.172.184.297.11.18.21.34.285.457.004.008.008.012.008.016.039.058.086.136.144.218.004.008.008.012.012.016.004.008.004.012.012.023.136.208.281.422.441.645.016.02.012.012.024.031l.02.028a.122.122 0 0 1 .015.023l.004.004c.007.012.039.05.039.05 0 .005.004.009.008.009.14.195.285.394.437.59l.137.18c.008.01.02.023.027.038.129.152.254.309.383.469.004.008.008.012.012.016.039.046.09.105.144.171.168.203.34.399.516.594.015.016.031.035.047.05l-.008-.01c.05.058.14.155.23.214l-.187-.16c.183.203.37.402.558.601.004.004.008.004.008.008l.203.203c.133.133.274.278.438.434.062.059.125.113.168.16.004.004.004.004.008.004.18.172.375.355.582.54.02.01.03.026.046.038v.004c.055.047.086.074.079.066.011.008.02.02.03.028.184.16.368.316.552.472.09.07.168.133.234.192h.008c.164.137.32.254.469.367 0 .004.004.004.004.008.074.055.152.113.238.18.004.003.008.003.011.007.176.133.352.258.52.38.05.038.11.077.172.12-.004-.004.02.016.012.012.027.02.054.04.078.055.164.11.324.219.492.328 0 .004.004.004.004.004.074.047.14.094.207.137a31.166 31.166 0 0 0 .848.527c.062.035.12.066.175.098l.008.007c.2.114.399.23.61.344l-.02-.012c.14.078.266.137.367.188.125.07.258.144.399.215l.066.035c.074.027.074.035-.004-.012.027.02.055.031.082.043.012.008.055.027.129.067h.008c.23.117.457.222.691.324.055.027.09.043.078.035.024.012.043.023.063.031.262.117.527.227.797.336.004 0 .011.004.015.004.016.004.094.04.172.066a.22.22 0 0 0 .047.016c.008.004.004.004.012.008.215.082.43.164.644.238.059.027.11.043.145.059.281.093.555.183.836.27l.027.011.172.05c.004 0 .008.005.012.005.02.004.015.004.035.011.238.075.52.18.887.25h.007c1.93.356 3.723.516 5.395.516 14.336.004 18.934-11.645 18.934-11.645a1.003 1.003 0 0 0-.45-1.23 1.005 1.005 0 0 0-1.28.27C40.12 39.762 32.8 40.848 25.66 39.207c-.215-.05-.469-.129-.762-.219-.003 0-.011-.004-.015-.004-.051-.015-.106-.03-.133-.043l-.047-.011c-.25-.078-.504-.164-.758-.25-.004-.004-.011-.004-.02-.008-.015-.004-.03-.008-.042-.016-.016-.004-.031-.011-.051-.015a23.18 23.18 0 0 1-.625-.235l-.035-.015a21.589 21.589 0 0 1-.906-.375c-.024-.012-.043-.02-.063-.028a.967.967 0 0 0-.078-.031l-.621-.297c-.016-.004-.027-.012-.043-.02a.927.927 0 0 1-.117-.058 10.002 10.002 0 0 1-.473-.242l-.016-.012c-.125-.062-.222-.11-.293-.152-.007 0-.011-.004-.019-.008-.184-.098-.375-.211-.578-.324l.078.047c-.133-.086-.227-.133-.281-.164l.031.015a30.91 30.91 0 0 1-.742-.457c-.004-.004-.008-.004-.008-.008a2.323 2.323 0 0 1-.168-.109c-.012-.012-.027-.02-.04-.027-.163-.106-.331-.223-.507-.34l-.012-.008-.164-.121c-.156-.11-.312-.223-.472-.344h-.008l-.02-.02c-.062-.05-.132-.101-.203-.156-.156-.12-.304-.234-.437-.343l-.02-.012-.199-.168s-.004 0-.008-.004c-.183-.148-.36-.305-.55-.469l.081.082c-.16-.18-.234-.203-.195-.175l.055.046a34.579 34.579 0 0 1-.586-.543l-.012-.007c-.031-.032-.082-.082-.148-.145l-.028-.027c-.144-.14-.277-.274-.398-.395l-.008-.008c-.055-.054-.105-.109-.168-.172a13.621 13.621 0 0 1-.535-.574h-.004c-.176-.191-.348-.39-.523-.597 0-.004 0-.008-.004-.012-.028-.031-.075-.09-.149-.176-.12-.148-.242-.305-.375-.465l-.004-.004a8.046 8.046 0 0 0-.117-.156l-.004-.004c-.148-.195-.289-.387-.43-.582l-.003-.004c-1.883-2.593-3.184-6.789-3.547-10.828-.367-4.035.262-7.91 1.668-9.816A1 1 0 0 0 10.004 8zm18.2.648c.054.547-.005 1.098.128 1.633.582 2.317 1.883 4.504 3.746 5.953.637.493 1.32.918 2.027 1.266a13.14 13.14 0 0 0 1.168.496l-.007-.004c.304.113.648.23.996.317.902.222 1.773.34 2.617.386-.594.121-1.09.325-1.848.301-.593-.02-1.25-.094-1.965-.234h-.004c-.046-.008-.167-.055-.374-.117l-.122-.04c-.12-.043-.218-.074-.293-.105-.007-.004-.011-.004-.02-.008-2.468-.926-4.605-2.902-5.636-5.383A7.871 7.871 0 0 1 28 10.012c.004-.465.113-.914.203-1.364zm-10.165 2.82c-.254 1.692-.25 3.427.262 5.095 1.054 3.476 3.258 6.511 6.043 8.734.058.05.117.098.156.133.008.004.016.011.023.015a18.657 18.657 0 0 0 .805.598c.125.086.25.168.387.254v.004c.008.004.078.058.21.137.188.12.376.234.532.332a.054.054 0 0 1 .016.011c.07.04.117.067.136.074.141.086.297.18.485.278v.004c.074.035.148.074.222.11.122.062.239.124.356.187l.027.011c.219.11.453.22.696.325.128.066.183.085.218.097.227.102.442.184.637.262.098.039.191.074.266.105l-.004-.004c.207.079.41.145.601.207.059.024.14.047.23.075a15.046 15.046 0 0 0 11.195-.684c-1.835 1.645-4.499 3.078-8.561 3.168a21.357 21.357 0 0 1-4.012-.312c-.004-.004-.008-.004-.012-.004-.121-.02-.332-.098-.637-.196-.086-.023-.16-.05-.238-.078a13.644 13.644 0 0 1-.52-.18l-.007-.003a15.414 15.414 0 0 0-.23-.082l-.024-.012c-.008-.004-.008-.004-.016-.004-.164-.066-.336-.14-.515-.219h-.004c-.051-.023-.102-.047-.16-.066-.235-.11-.457-.211-.665-.317l-.035-.011a5.287 5.287 0 0 0-.336-.176l-.011-.008-.02-.012-.098-.05c-.023-.016-.046-.028-.066-.04a6.839 6.839 0 0 1-.433-.246l-.079-.043s-.023-.011-.035-.015a21.913 21.913 0 0 1-.504-.317l-.011-.011c-.016-.008-.067-.043-.153-.098-.125-.082-.226-.148-.304-.203-.024-.02-.051-.035-.079-.055 0 0-.003 0-.007-.004a18.17 18.17 0 0 1-.828-.629 14.508 14.508 0 0 1-.641-.535l-.008-.008c-.008-.007-.02-.015-.027-.023l-.016-.012-.016-.015a18.695 18.695 0 0 1-.578-.543l-.011-.012a4.71 4.71 0 0 1-.141-.145c-.004 0-.004-.003-.008-.003a10.747 10.747 0 0 1-.558-.594.734.734 0 0 0-.098-.094c-.383-.336-.809-.969-1.227-1.578-.004-.004-.004-.004-.004-.008a14.707 14.707 0 0 1-1.125-1.898v-.008c-1.675-3.309-1.898-7.313-.44-10.66zm-10.77 2.61a25.527 25.527 0 0 0-.128 5.516c.39 4.324 1.707 8.77 3.921 11.816.153.219.31.426.47.637.058.078.097.125.109.14a.426.426 0 0 0 .05.067c.125.156.254.316.387.484l.031.032c.024.027.067.085.137.167.18.211.367.43.563.645.007.008.015.02.023.027.184.203.375.407.57.606.051.05.106.11.172.176l.004.004.004.003c.156.157.3.301.438.434l.027.027c.031.028.078.078.16.157.004.004.008.004.012.007.199.188.406.383.62.57.016.02.036.036.056.052.082.062.062.07-.063-.067a14.241 14.241 0 0 0 .695.602l.188.152.015.016c.168.136.329.257.477.375l.031.027c.067.043.13.094.2.145.007.011.015.02.027.027.176.125.348.254.535.387.04.027.098.074.172.129.004 0 .008.003.015.003.18.125.372.258.579.387.054.04.117.086.199.137a22.962 22.962 0 0 0 .797.492c.008.004.015.012.027.016.086.047.125.07.117.066.024.016.051.035.078.05.188.102.383.216.59.329l.004.004c.004 0 .008.004.016.004.129.074.246.133.343.183.153.082.317.168.489.25.004.004.015.008.015.012.008 0 .008 0 .012.004.059.027.125.066.23.11.196.097.395.19.602.285l.047.023c.004 0 .07.027.121.05a23.317 23.317 0 0 0 .996.41c.23.095.473.188.73.278l.134.047c.246.086.5.168.761.25.102.035.192.059.27.082.258.078.543.172.87.246 5.294 1.219 10.833.91 15.333-1.379C37.945 42.383 33.68 45 27 45c-1.543 0-3.215-.148-5.031-.484-.18-.036-.41-.114-.719-.207-.016-.008-.031-.012-.047-.016-.004 0-.066-.02-.14-.043l-.032-.008c-.25-.078-.496-.16-.746-.246l-.02-.008c-.027-.008-.019-.004-.011-.004l-.04-.015a33.91 33.91 0 0 1-.698-.262c-.016-.008-.036-.012-.055-.02l-.129-.05-.016-.008a23.003 23.003 0 0 1-.714-.3c-.047-.02-.11-.052-.118-.052-.004-.004-.007-.007-.011-.007a15.568 15.568 0 0 1-.618-.29h-.007c-.016-.011-.075-.039-.114-.058-.09-.05-.101-.05-.132-.063l-.016-.004c-.125-.066-.25-.132-.371-.199-.012-.008-.024-.015-.035-.02a7.399 7.399 0 0 1-.293-.152c-.18-.097-.36-.199-.54-.304l-.007-.004a3.41 3.41 0 0 0-.23-.13l-.02-.015c-.235-.14-.465-.285-.695-.433-.067-.047-.133-.086-.2-.13l-.004-.003h-.004a23.58 23.58 0 0 0-.46-.313c-.024-.02-.051-.039-.079-.058-.039-.024-.085-.059-.14-.098l-.012-.012c-.164-.113-.324-.23-.476-.343l-.004-.004h-.004l-.23-.18-.005-.004a12.25 12.25 0 0 1-.433-.336l-.004-.004c-.078-.062-.145-.113-.2-.16 0-.004-.003-.004-.003-.004l-.532-.453a.251.251 0 0 0-.058-.047c-.016-.02-.035-.035-.05-.05-.18-.153-.364-.329-.556-.508l-.004-.008c-.066-.063-.124-.113-.175-.164l-.012-.012c-.125-.117-.254-.254-.398-.398a.17.17 0 0 1-.024-.028c-.055-.05-.101-.093-.148-.14a67.804 67.804 0 0 1-.52-.559l-.008-.008a.091.091 0 0 0-.027-.027c-.172-.195-.34-.387-.5-.582-.008-.008-.016-.016-.023-.028-.032-.035-.075-.085-.122-.14l-.003-.004c0-.004-.004-.008-.008-.012-.121-.152-.25-.312-.383-.472a2.861 2.861 0 0 1-.11-.153c-.011-.011-.019-.023-.027-.031-.129-.168-.258-.336-.386-.516l-.008-.011c-.035-.051-.059-.078-.047-.063l-.024-.035c-.007-.012-.015-.02-.023-.031l-.012-.016h-.004c-.133-.187-.265-.387-.406-.598a.092.092 0 0 0-.023-.035c-.024-.035-.055-.086-.094-.148l-.012-.016c-.117-.191-.223-.347-.293-.468a.357.357 0 0 0-.031-.051c-.031-.047-.07-.117-.129-.211l-.004-.008a66.702 66.702 0 0 1-.258-.434v-.007c-.008-.008-.008-.012-.015-.02l-.102-.2a.588.588 0 0 0-.039-.066c-.043-.078-.059-.113-.023-.039a1.046 1.046 0 0 0-.047-.093c-.035-.063-.07-.121-.094-.184l-.023-.047c-.079-.148-.141-.266-.188-.36-.004-.011-.008-.023-.012-.03-2.605-5.254-2.972-13.352.118-18.36zm15.047 13.027l.012.004c.016.024.012.016.031.047-.011-.02-.027-.035-.043-.05zm-11.648 10.5l.016.016.02.024.003.003v.004c.008.004.012.016.016.024a.636.636 0 0 0-.055-.07zm4.078 3.567l.035.02c-.07-.051-.066-.055 0 .007-.011-.011-.023-.02-.035-.027z" id="surface1"/><metadata><rdf:RDF xmlns:rdf="http://www.w3.org/1999/02/22-rdf-syntax-ns#" xmlns:rdfs="http://www.w3.org/2000/01/rdf-schema#" xmlns:dc="http://purl.org/dc/elements/1.1/"><rdf:Description about="https://iconscout.com/legal#licenses" dc:title="jquery" dc:description="jquery" dc:publisher="Iconscout" dc:date="2017-12-09" dc:format="image/svg+xml" dc:language="en"><dc:creator><rdf:Bag><rdf:li>Icons8</rdf:li></rdf:Bag></dc:creator></rdf:Description></rdf:RDF></metadata></svg>