<svg width="21" height="24" viewBox="0 0 21 24" fill="none" xmlns="http://www.w3.org/2000/svg">
<path d="M10.3067 0.00786591C10.7049 0.0472295 11.0819 0.207715 11.3847 0.468128L19.524 7.44473C19.9343 7.77328 20.1932 8.25472 20.2417 8.77707C20.2901 9.29942 20.1251 9.81872 19.7845 10.2184C19.4423 10.6166 18.9548 10.8604 18.4309 10.8922C17.9071 10.924 17.3923 10.7423 17.0047 10.388L10.125 4.48929L3.24529 10.388C2.8577 10.7423 2.34295 10.924 1.81908 10.8922C1.29521 10.8604 0.807705 10.6166 0.465542 10.2184C0.124886 9.81876 -0.040146 9.29942 0.00830261 8.77707C0.0567513 8.25472 0.315649 7.77329 0.725963 7.44473L8.86534 0.468128C9.26351 0.125961 9.78435 -0.0390711 10.3067 0.00786591V0.00786591Z" fill="white"/>
<path d="M10.3067 13.0079C10.7049 13.0472 11.0819 13.2077 11.3847 13.4681L19.524 20.4447C19.9343 20.7733 20.1932 21.2547 20.2417 21.7771C20.2901 22.2994 20.1251 22.8187 19.7845 23.2184C19.4423 23.6166 18.9548 23.8604 18.4309 23.8922C17.9071 23.924 17.3923 23.7423 17.0047 23.388L10.125 17.4893L3.24529 23.388C2.8577 23.7423 2.34295 23.924 1.81908 23.8922C1.29521 23.8604 0.807705 23.6166 0.465542 23.2184C0.124886 22.8188 -0.040146 22.2994 0.00830261 21.7771C0.0567513 21.2547 0.315649 20.7733 0.725963 20.4447L8.86534 13.4681C9.26351 13.126 9.78435 12.9609 10.3067 13.0079V13.0079Z" fill="white"/>
</svg>
