<svg id="Слой_1" data-name="Слой 1" xmlns="http://www.w3.org/2000/svg" viewBox="0 0 248.9 45"><defs><style>.cls-1{fill:#fff;}.cls-2{fill:#fcfcfc;}</style></defs><title>logo_main_1</title><path class="cls-1" d="M186,35c2.18-1.33,2.18-1.33,4.78.33v6.46h-7.66c-.17-1-.32-1.88-.56-3.25l-2.23,3.32h-3.06a8.73,8.73,0,0,1-1.3-1.35,6.76,6.76,0,0,1-.34-1.94l-2.24,3.3H170V37.63L168.42,36l-1.6,1.6v4.26l-1.71.14V39.21L160.27,39c-.08,2.83,2.65,1.41,3.81,2.85h-4.82L157.38,40l-1.95,2h-3.52v3h-2V42.62c-1.07-.76-2.08-1.5-3.11-2.21a1.75,1.75,0,0,0-.67-.17l-.63,1.85-1.43-.29c-.14-1.37-.26-2.58-.38-3.79h-.54l-2.24,7h-2a4.94,4.94,0,0,1,.38-1.82c.82-1.22.64-2.12,0-3.46s-2.28-2.83-1-4.7h1.37l.43,2.78,1.5.31.54-3h3.47c.14.4.33,1,.62,1.82l3.21-2.64c.24,1.28.36,2,.4,2.43a13.3,13.3,0,0,0-1.37,2.33l1.29,1.62c0-1.83,0-2.77.08-4a12.92,12.92,0,0,0,2.77-1.65h2.94l2,2L158.91,35h4.51l1,2.2.71-2.07H171L172.33,40l3-5.36,3,6.36,1.43-2.49-1.11-1.6L180.32,35H186c.08,1.62.08,3.24.08,4.87l.73-.58.44,1.8c2.52-2,1.5-4.1,1.5-6.09Zm-31.94.74c-3,2.87-3,3.3.22,5.26C156.41,38.5,156.41,38.5,154.06,35.74ZM182.65,38V35.88l-1.82.37L181.2,38Zm-20.16-.18L161.64,36l-2,1.59a7.18,7.18,0,0,0,1.52.37A6.6,6.6,0,0,0,162.49,37.82Z" transform="translate(-0.01)"/><path class="cls-1" d="M200.91,45V42.63l3.24,1.49,2.25-2c-2.58-.22-5,.61-6-3.2l-.62,2.87h-4.55l-.11-.32,2.89-.75-.78-2.3.94-2-3.2-.73V35.2l4.58-.25.89,2.43L201.78,35h3.61l2,1.94,1.87-1.87h4.23l.87,2.16L215.91,35h4.52l2,2.11,1.07-2h4.07l1.79,2.42c.35-1,.53-1.6.77-2.33h6.51l.5,2.7H240l2.54-2.8h3.7l2.65,1.9v2h-6.49c.9.9,1.24,1.5,1.73,1.68a13.3,13.3,0,0,0,2.35.33,9.73,9.73,0,0,1,1.3.39l-.15.48h-5l-1.27-2.27L240.57,42h-5.46c-1.8,0-3.49-.08-5-.13l-.54-2.22L227.91,42h-3.42l-2.06-2-1.81,1.81-3.66.41V45h-2c-.15-1.63.31-3.34-.51-5.37-.39,1-.59,1.62-.92,2.51l-5.48-.66c-.29.92-.69,2.22-1.09,3.52Zm3.15-9.26c-3,2.87-3,3.3.22,5.26C206.41,38.5,206.41,38.5,204.06,35.74Zm21.7,5.52c3-2.87,3-3.3-.22-5.26C223.41,38.5,223.41,38.5,225.76,41.26Zm-12.54-2.07-1.43-2.93-2.94,2.18c.78.78,1.35,1.37,1.94,1.94.21.2.46.37.69.55Zm7-1.55-.87.39-.87-2.34c-2,3.13-1.92,4.27.32,5.39Zm27.18.2-2.19-1.61-2.49,1.12.37.49Zm-13.61,1.33H231v1.66h2.82Zm5-.16c-2.23-.09-2.24.74-1.47,2.07l1.47-.28Zm-7.88-1.27H233l-.37-1.82-1.75.37Z" transform="translate(-0.01)"/><path class="cls-1" d="M67.91,0c.82,1,1.67,2,2.45,3,2.11,2.74,2.12,5.4-.07,8.12a19.18,19.18,0,0,1-2.38,2.12c2.37,2.94,3.75,6,5.9,9.43l-3.59.46-5.91-9H61V23.3l-3.54-.94A6.15,6.15,0,0,1,56.91,21c0-5.8.07-11.6-.07-17.4A7.62,7.62,0,0,1,57.91,0ZM61.16,3v7.85h4.31l2.44-2.31v-3L65.41,3Z" transform="translate(-0.01)"/><path class="cls-1" d="M118.91,0l2.94,3.71L119,5.4l-2.85-2.54c-.46.24-1,.36-1.24.69-.92,1.22-.89,1.24-.9,4L115.4,9h3l3.51,3.56v6.93L118.41,23h-5.77l-3.53-2.08V17.1h2.59l.29,1.44L114.84,20l2.87-1.43L119.22,15l-2.67-2.87h-3.07L110,7.76V3.65L112.91,0Z" transform="translate(-0.01)"/><path class="cls-1" d="M186.91,0V6.68l2.85.54V9.77l-2.72.45v8.83l3.77,1.38v2.42H186.3a8.57,8.57,0,0,1-3.42-8,40.18,40.18,0,0,0,0-4.39l-2.14-2.14,2-.82c.38-3.15-.45-5.5,1.17-7.5Z" transform="translate(-0.01)"/><path class="cls-2" d="M2.14,33.86l1.45,1.27,9.88-5.35,3.26-6.34-.56-.71c.56-1.72,1.55-3.53,1.63-5.37s-.78-3.61-1.27-5.63l-3.16,1.48A11.33,11.33,0,0,0,12,16.47c-.11,1.17.45,2.39.85,4.13l-2.1.62.7.64H8.65L9.71,11.33C13.23,9.67,15.47,6.15,19.4,7l1.5-1.5V2.87c1.2-2.52,3-1.7,4.49-1.89l1.52,1.51v3L25,7.28,28.36,12c3.38-.41,2.26-3.16,2.62-4.91h3a13.22,13.22,0,0,1-4.83,9.12l-3.69-1.3a5.5,5.5,0,0,0-.5,1.17c-.23,1.18-.38,2.38-.61,3.88,2.9,1.83,7.27,2.1,9.68,5.83-1,3.64-1.92,7.39-3,11.64l4.49,4.14c-3.67.89-6.31.34-8.47-2,1.22-2.29,3.28-4.35,1-7.3-.47-.61.49-2.31.81-3.58-1.71-2-4.1-1.8-6.34-1.66l-5.33,6.44-12.25,4L.55,42.39C-1,38.92,1.07,36.59,2.14,33.86Z" transform="translate(-0.01)"/><path class="cls-1" d="M146.91,22.9H144V12.64l-2.79-2.8-3.34,1.58v9.86a2.92,2.92,0,0,1-3.84,1.52h0V13.84l-3.37-4.9-1.89,4.3-1-.82V23.21L124,22.27V8.33L125.46,7c3,.47,6.32-.79,9.41,1a2.61,2.61,0,0,0,2.4,0c1.87-2,4.17-.24,5.93-1.11l3.71,3.6Z" transform="translate(-0.01)"/><path class="cls-1" d="M154.36,7.05C162,7,162,7,165.91,13.49v7.86l-1.6,2L162.1,22c-5,2-9.61,1-11.87-2.94S149.34,10,154.36,7.05Zm7,10.56c1-1.58,1-4.15-1-6.61-2.92-1.11-2.92-1.11-5.92.27-2.22,2.78-1.65,5.22-.09,7.14C156.29,20.66,158.31,20.5,161.36,17.61Z" transform="translate(-0.01)"/><path class="cls-1" d="M89.74,22.7c-1.63,1.19-3-.88-4.81.15-1.38.77-3.56.15-5.52.15l-4.35-4.66V7.1h2.85c0,2.3-.06,4.58,0,6.86.11,3.16,1.74,5.08,5.44,6.18l3.71-4.66V7.09h2.67Z" transform="translate(-0.01)"/><path class="cls-1" d="M106.75,22.91h-2.67V14.77c-1.7-1.92-2-5-5.78-4.73l-3.56,4.51V22.9H92.06V7.32c1.33-1.6,3,.93,4.87-.16,1.35-.8,3.56-.16,5.48-.16l4.34,4.54Z" transform="translate(-0.01)"/><path class="cls-1" d="M65.15,42l-.54-2.07-1.13,2H58.07l-2.43-4.18,2.27-4.54h5v.54l-4,.46v.55l3.66.4,2,2,.57-2.07c1.94-.06,4-.5,5.82.93,1.51-1.21,3.15-1.35,5.68-.35L73,36.21V41.9H71.1V39.25H66.21c.14,2.37,2.31,1.4,4.11,2.34-1.32.18-2.12.34-2.92.4S65.84,42,65.15,42Zm-6.66-4.08,2.42,2.44c1.3-2,1.3-2-.57-4.3Zm7.32-.52.31.65,3-.37-1.24-1.24Z" transform="translate(-0.01)"/><path class="cls-1" d="M179.74,10c-3.83-.2-7.36,0-8.86,4.33v8.49h-2.74V7.18c1.78-.82,3.54.85,5.57,0,1.66-.72,3.88-.15,6-.15Z" transform="translate(-0.01)"/><path class="cls-1" d="M100.91,41V36.48l1.71-1.65,5.73.86c1.64-1.45,4.06-.44,6.3-.71l.53,2,3.24-2.64.49,2.66-2.16,1.57L118.91,40v2.59l-3.64-2.44-.58,1.67-1.64.3v-6h-3v5.67l-1.94.21V39.22L103.28,39c-.1,2.78,2.63,1.36,3.88,2.9C104.78,42,102.75,42.42,100.91,41Zm1.31-2.81,3.69-.53L104.44,36Z" transform="translate(-0.01)"/><path class="cls-1" d="M88.91,35h1.74v7c-2.05-.27-4.27.52-6.44-.81-1.56,1.78-3.85.29-5.73.84l-2.57-2.52v-2l2.51-2.42c1.3.11,2.87-.66,3.77.66L84.91,35c-.07,2.31-.09,4.59,2,6.2C89,39.37,89,37.2,88.91,35Zm-8.72.3c-3,3.4-3,3.4,0,5.83,1.29-.83,2.14-1.87,1.34-3.17Z" transform="translate(-0.01)"/><path class="cls-1" d="M118.91,37l1.64-2c1.48.35,3.68-1,5.29,1.43v4c-1.41,2.32-3.57,1.24-5.35,1.49L118.91,40Zm5.52,1.86L122,35.73l-1.27,3.55L122.43,41Z" transform="translate(-0.01)"/><path class="cls-1" d="M101,41.77,99.45,42l-2-4-2,4.11-1.79-.41c1.2-2.36,2.3-4.52,3.79-7.43Z" transform="translate(-0.01)"/><path class="cls-1" d="M84.91,35a2.49,2.49,0,0,1,3.47-.53,2.66,2.66,0,0,1,.53.53Z" transform="translate(-0.01)"/><ellipse class="cls-1" cx="131.9" cy="38.5" rx="2.83" ry="0.35"/></svg>