<svg id="Слой_1" data-name="Слой 1" xmlns="http://www.w3.org/2000/svg" viewBox="0 0 200 200"><defs><style>.cls-1{fill-rule:evenodd;}</style></defs><title>min-hh-white (1)</title><path class="cls-1" d="M25,125A100,100,0,1,0-75,25,100,100,0,0,0,25,125ZM-19.12-22.13v34C-13.95,5.71-7.74,2.6-.54,2.6a23.07,23.07,0,0,1,10,2.12,16.34,16.34,0,0,1,6.73,5.36,19.5,19.5,0,0,1,3.09,7.25,65.15,65.15,0,0,1,.83,12.31V66H4V33.25c0-6.5-.29-10.62-.9-12.37A8,8,0,0,0-.11,16.72a10.06,10.06,0,0,0-5.8-1.57,13,13,0,0,0-7.14,2,11.36,11.36,0,0,0-4.62,6q-1.47,4-1.45,11.82l0,31.06H-35.21V-22.13Zm63.36,0v34Q52,2.62,62.82,2.6a23.22,23.22,0,0,1,10,2.12,16.4,16.4,0,0,1,6.71,5.36,19.67,19.67,0,0,1,3.09,7.25,66,66,0,0,1,.83,12.31V66H67.4V33.25q0-9.75-.91-12.37a8,8,0,0,0-3.24-4.16,10.07,10.07,0,0,0-5.81-1.57,13,13,0,0,0-7.13,2,11.51,11.51,0,0,0-4.62,6q-1.44,4-1.45,11.82V66H28.16V-22.13Zm0,0" transform="translate(75 75)"/></svg>