<svg id="Слой_1" data-name="Слой 1" xmlns="http://www.w3.org/2000/svg" viewBox="0 0 200 200.00002"><defs><style>.cls-1{fill-rule:evenodd;}</style></defs><title>min-hh-white (1)</title><path class="cls-1" d="M25,125A100,100,0,1,0-75,25,100,100,0,0,0,25,125ZM-19.12158-22.12941V11.88628C-13.94511,5.71373-7.73726,2.60393-.53728,2.60393A23.074,23.074,0,0,1,9.47058,4.71764,16.35023,16.35023,0,0,1,16.2,10.07845a19.6368,19.6368,0,0,1,3.09411,7.251,65.83185,65.83185,0,0,1,.82744,12.30588V66.00783H4.02744V33.251c0-6.502-.2902-10.61957-.902-12.36859A7.9954,7.9954,0,0,0-.10588,16.71764a10.12729,10.12729,0,0,0-5.80785-1.5647A13.062,13.062,0,0,0-13.051,17.1451a11.33951,11.33951,0,0,0-4.61568,5.98822q-1.47648,4-1.45491,11.8157l-.01959,31.05881H-35.21179V-22.12941Zm63.36078,0V11.88628c5.1804-6.17255,11.38432-9.28235,18.58432-9.28235A23.23111,23.23111,0,0,1,72.84706,4.71764a16.3603,16.3603,0,0,1,6.70979,5.36081,19.57149,19.57149,0,0,1,3.09412,7.251,65.83272,65.83272,0,0,1,.82744,12.30588V66.00783H67.4039V33.251q0-9.75293-.91765-12.36859A7.9632,7.9632,0,0,0,63.251,16.71764a10.09258,10.09258,0,0,0-5.80783-1.5647,13.07145,13.07145,0,0,0-7.13725,1.99216,11.52734,11.52734,0,0,0-4.61179,5.98822q-1.447,4-1.45489,11.8157V66.00783H28.16469V-22.12941Zm0,0" transform="translate(75 75)"/></svg>